<svg xmlns="http://www.w3.org/2000/svg" width="65" height="65" viewBox="0 0 65 65" fill="none">
  <path fill-rule="evenodd" clip-rule="evenodd" d="M32.5 64.583C14.79 64.583 0.416665 50.1776 0.416667 32.4997L0.428996 31.6021C0.904854 14.3066 15.0902 0.416339 32.5 0.416341C50.1779 0.416342 64.5833 14.7897 64.5833 32.4997C64.5833 50.1776 50.1779 64.583 32.5 64.583ZM45.3333 26.1472C44.3708 25.2168 42.8629 25.2168 41.9325 26.1793L32.5 35.6438L23.0675 26.1793C22.1371 25.2168 20.5971 25.2168 19.6667 26.1472C18.7042 27.1097 18.7042 28.6176 19.6667 29.548L30.7996 40.7451C31.2488 41.1943 31.8583 41.4509 32.5 41.4509C33.1417 41.4509 33.7513 41.1943 34.2004 40.7451L45.3333 29.548C45.8146 29.0988 46.0392 28.4893 46.0392 27.8797C46.0392 27.238 45.8146 26.6284 45.3333 26.1472Z" fill="black"/>
</svg>