<svg xmlns="http://www.w3.org/2000/svg" width="65" height="65" viewBox="0 0 65 65" fill="none">
  <path fill-rule="evenodd" clip-rule="evenodd" d="M32.5 0.416992C50.21 0.416992 64.5833 14.8224 64.5833 32.5003L64.571 33.3979C64.0951 50.6934 49.9098 64.5837 32.5 64.5837C14.8221 64.5837 0.416656 50.2103 0.416656 32.5003C0.416656 14.8224 14.8221 0.416992 32.5 0.416992ZM19.6667 38.8528C20.6292 39.7832 22.1371 39.7832 23.0675 38.8207L32.5 29.3562L41.9325 38.8207C42.8629 39.7832 44.4029 39.7832 45.3333 38.8528C46.2958 37.8903 46.2958 36.3824 45.3333 35.452L34.2004 24.2549C33.7512 23.8057 33.1417 23.5491 32.5 23.5491C31.8583 23.5491 31.2487 23.8057 30.7996 24.2549L19.6667 35.452C19.1854 35.9012 18.9608 36.5107 18.9608 37.1203C18.9608 37.762 19.1854 38.3716 19.6667 38.8528Z" fill="black"/>
</svg>