<svg xmlns="http://www.w3.org/2000/svg" width="48" height="48" viewBox="0 0 48 48" fill="none">
  <path fill-rule="evenodd" clip-rule="evenodd" d="M24.0165 4.3335C12.9479 4.3335 4 13.3474 4 24.4988C4 33.4127 9.73324 40.9581 17.6868 43.6287C18.6812 43.8294 19.0454 43.1948 19.0454 42.6609C19.0454 42.1934 19.0126 40.591 19.0126 38.9214C13.4445 40.1235 12.285 36.5176 12.285 36.5176C11.3902 34.1805 10.0643 33.5798 10.0643 33.5798C8.24185 32.3445 10.197 32.3445 10.197 32.3445C12.2186 32.4781 13.2794 34.4144 13.2794 34.4144C15.0686 37.4857 17.9518 36.6179 19.1118 36.0837C19.2773 34.7816 19.8079 33.8802 20.3713 33.3795C15.9303 32.912 11.2578 31.176 11.2578 23.4302C11.2578 21.2267 12.0527 19.424 13.3122 18.0219C13.1134 17.5212 12.4173 15.4509 13.5113 12.6799C13.5113 12.6799 15.2014 12.1457 19.0122 14.7499C20.6438 14.3084 22.3263 14.0839 24.0165 14.082C25.7067 14.082 27.4295 14.316 29.0205 14.7499C32.8317 12.1457 34.5218 12.6799 34.5218 12.6799C35.6158 15.4509 34.9192 17.5212 34.7205 18.0219C36.0132 19.424 36.7753 21.2267 36.7753 23.4302C36.7753 31.176 32.1028 32.8784 27.6287 33.3795C28.358 34.0137 28.9873 35.2155 28.9873 37.1186C28.9873 39.8228 28.9545 41.9931 28.9545 42.6605C28.9545 43.1948 29.3192 43.8294 30.3132 43.6291C38.2667 40.9577 43.9999 33.4127 43.9999 24.4988C44.0327 13.3474 35.052 4.3335 24.0165 4.3335Z" fill="white"/>
</svg>