<svg xmlns="http://www.w3.org/2000/svg" width="36" height="36" viewBox="0 0 36 36" fill="none">
  <path d="M10.1533 27.9828C15.7604 27.9828 20.3062 23.3976 20.3062 17.7416C20.3062 12.0855 15.7608 7.5 10.1533 7.5C4.54575 7.5 0 12.0865 0 17.7416C0 23.3966 4.54609 27.9828 10.1533 27.9828Z" fill="white"/>
  <path d="M31.4442 17.7416C31.4442 23.0656 29.1713 27.3832 26.3676 27.3832C23.5638 27.3832 21.291 23.0656 21.291 17.7416C21.291 12.4176 23.5635 8.09995 26.3672 8.09995C29.171 8.09995 31.4442 12.4162 31.4442 17.7416Z" fill="white"/>
  <path d="M36 17.7416C36 22.5105 35.2007 26.3789 34.2145 26.3789C33.2283 26.3789 32.4294 22.5116 32.4294 17.7416C32.4294 12.9716 33.2286 9.10419 34.2145 9.10419C35.2004 9.10419 36 12.9712 36 17.7416Z" fill="white"/>
</svg>