<svg width="1226" height="693" viewBox="0 0 1226 693" fill="none" xmlns="http://www.w3.org/2000/svg">
<path d="M1225.33 48.2627V116.224L1021.44 116.224H817.556V48.2627C864.078 48.2627 902.059 34.0784 939.57 20.0695C951.597 15.5779 963.575 11.1044 975.772 7.12211C989.724 2.56658 1005.5 0 1022.2 0C1039.41 0 1055.62 2.72166 1069.88 7.53421C1081.07 11.313 1092.11 15.4931 1103.2 19.6934C1140.61 33.863 1178.62 48.2627 1225.33 48.2627Z" fill="#D9D9D9"/>
<path d="M817.556 644.159L817.556 576.197L1021.44 576.197L1225.33 576.197L1225.33 644.159C1178.8 644.159 1140.82 658.343 1103.31 672.352C1091.29 676.844 1079.31 681.318 1067.11 685.3C1053.16 689.855 1037.38 692.422 1020.68 692.422C1003.48 692.422 987.259 689.7 973.005 684.888C961.812 681.109 950.776 676.929 939.687 672.728C902.277 658.559 864.261 644.159 817.556 644.159Z" fill="#D9D9D9"/>
<path d="M817.556 48.2627V116.224L613.671 116.224H409.786V48.2627C456.307 48.2627 494.288 34.0784 531.799 20.0695C543.826 15.5779 555.805 11.1044 568.001 7.12211C581.954 2.56658 597.729 0 614.434 0C631.636 0 647.853 2.72166 662.108 7.53421C673.301 11.313 684.336 15.4931 695.426 19.6934C732.835 33.863 770.851 48.2627 817.556 48.2627Z" fill="#D9D9D9"/>
<path d="M409.785 644.159L409.785 576.197L613.671 576.197L817.556 576.197L817.556 644.159C771.034 644.159 733.054 658.343 695.542 672.352C683.516 676.844 671.537 681.318 659.34 685.3C645.388 689.855 629.612 692.422 612.908 692.422C595.706 692.422 579.489 689.7 565.234 684.888C554.041 681.109 543.005 676.929 531.916 672.728C494.507 658.559 456.49 644.159 409.785 644.159Z" fill="#D9D9D9"/>
<rect y="48.2627" width="407.771" height="595.897" fill="#D9D9D9"/>
<rect x="407" y="48" width="410" height="596" fill="#D9D9D9"/>
<rect x="816" y="48" width="409" height="596" fill="#D9D9D9"/>
</svg>

